# xmcd
#
# Track frame offsets:
#	150
#	47040
#	80944
#	114023
#	163897
#	186619
#	216435
#	265212
#	289281
#	322949
#
# Disc length: 4686 seconds
#
# Revision: 1
# Processed by: cddbd v1.5.1PL0 Copyright (c) Steve Scherf et al.
# Submitted via: audiograbber 1.83.01
#
DISCID=9b124c0a
DTITLE=Johnny Winter - 1983-10-24 - Stockholm, Sweden
DYEAR=1900
DGENRE=
TTITLE0=Hideaway
TTITLE1=Crossroads
TTITLE2=Be Careful
TTITLE3=Red House
TTITLE4=Bony Moronie
TTITLE5=Hoochie Koo
TTITLE6=No Time To Live
TTITLE7=Johnny B. Goode
TTITLE8=Black Cat Bone
TTITLE9=Highway 61 Revisited
EXTD=
EXTT0=
EXTT1=
EXTT2=
EXTT3=
EXTT4=
EXTT5=
EXTT6=
EXTT7=
EXTT8=
EXTT9=
PLAYORDER=
